<svg version="1.1" viewBox="0 0 96 96" xmlns="http://www.w3.org/2000/svg" xmlns:xlink="http://www.w3.org/1999/xlink" id="Icons" overflow="hidden"><path d=" M 55.5 35 L 39.5 35 L 39.5 59 L 27 59 L 47.5 83 L 68 59 L 55.5 59 Z"/><path d=" M 80.6 37.9 C 79.8 33 77.1 28.6 73.1 25.7 C 69 22.8 63.8 21.7 58.8 22.7 C 53.9 15.2 44.8 11.5 36.1 13.6 C 27.6 15.8 21.2 22.9 19.9 31.6 C 14.3 31.8 9 34.5 5.6 39 C 1.6 44.6 0.9 51.9 3.7 58.2 C 6.6 64.4 12.6 68.5 19.4 68.9 L 26.7 68.9 L 24 65.6 L 21.5 62.7 L 19.7 62.7 C 15.2 62.4 11.2 59.7 9.2 55.6 C 7.3 51.4 7.8 46.6 10.5 42.8 C 13.2 39.1 17.7 37.3 22.3 38 L 25.8 38.6 L 25.8 34.7 C 25.8 27.6 30.6 21.4 37.5 19.7 C 44.4 18 51.5 21.4 54.7 27.7 L 55.9 30.1 L 58.4 29.2 C 62.2 27.9 66.3 28.5 69.6 30.8 C 72.8 33.2 74.7 36.9 74.8 40.9 L 74.8 44 L 78.9 44 C 84 44.2 88 48.4 87.9 53.4 C 87.9 58.5 83.8 62.6 78.8 62.7 L 73.6 62.7 L 71 65.6 L 68.2 69 L 78.8 69 C 86.9 68.8 93.5 62.4 94 54.3 C 94.5 46.2 88.6 39.1 80.6 37.9 Z"/></svg>